<svg xmlns="http://www.w3.org/2000/svg" width="910" height="685.33" viewBox="0 0 910 685.33"><g transform="translate(0 0)"><path d="M874,632H0V62L741,197Z" fill="#24232b"/><path d="M447.251,702.335H257.646s-3.843-56.369,18.9-57.01,20.178,24.982,48.683-10.249,63.1-33.309,67.579-12.491-8.648,37.473,15.373,32.348S466.788,663.261,447.251,702.335Z" transform="translate(-145 -107.335)" fill="#d0cde1"/><path d="M349.248,702.348l-.64-.026c1.492-37.113,9.265-60.959,15.523-74.427,6.794-14.624,13.342-20.544,13.407-20.6l.426.479c-.064.058-6.535,5.919-13.275,20.444C358.465,641.627,350.735,665.375,349.248,702.348Z" transform="translate(-145 -107.335)" fill="#f2f2f2"/><path d="M417.871,702.425l-.615-.179a99.365,99.365,0,0,1,25.017-41.621l.43.474a98.691,98.691,0,0,0-24.832,41.326Z" transform="translate(-145 -107.335)" fill="#f2f2f2"/><path d="M287.509,702.379l-.635-.088a69.764,69.764,0,0,0-6.275-40.778,56.147,56.147,0,0,0-9.9-14.451l.443-.462a56.851,56.851,0,0,1,10.034,14.63,70.4,70.4,0,0,1,6.335,41.149Z" transform="translate(-145 -107.335)" fill="#f2f2f2"/><path d="M1055,702.335H179v-572h876Zm-874-2h872v-568H181Z" transform="translate(-145 -107.335)" fill="#a1dcde"/><path d="M477.072,702.634H225.413l-.058-.852c-.145-2.121-3.355-52.144,12.853-69.992a17.752,17.752,0,0,1,12.973-6.225c10.565-.3,17.2,3.657,22.56,6.833,10.094,5.988,16.762,9.944,41.006-20.021,26.264-32.462,54.6-39.445,70.892-35.562,10.525,2.51,17.78,9.6,19.9,19.46,2.01,9.334,1.37,18.1.856,25.152-.551,7.54-.986,13.5,2.111,16.195,2.585,2.252,7.745,2.457,16.238.644,17.274-3.685,41.377-.532,53.475,15.1,6.509,8.41,11.636,23.7-.9,48.764ZM227.131,700.8H475.94c9.34-18.949,9.631-34.957.836-46.321-11.1-14.339-34.382-18.114-51.648-14.43C415.9,642.023,410.4,641.7,407.307,639c-3.786-3.3-3.322-9.657-2.734-17.707.506-6.931,1.136-15.556-.819-24.633-1.969-9.141-8.726-15.726-18.539-18.065-15.771-3.763-43.317,3.133-69.046,34.933-25.238,31.193-32.84,26.685-43.36,20.444-5.421-3.215-11.577-6.862-21.575-6.578a15.989,15.989,0,0,0-11.67,5.626c-14.568,16.041-12.789,61.023-12.432,67.786Z" transform="translate(-145 -107.335)" fill="#a1dcde"/><rect width="179.127" height="2.013" transform="translate(127.261 266.343)" fill="#a1dcde"/><rect width="179.127" height="2.013" transform="translate(127.261 280.432)" fill="#a1dcde"/><rect width="179.127" height="2.013" transform="translate(127.261 294.521)" fill="#a1dcde"/><rect width="179.127" height="2.013" transform="translate(127.261 201.711)" fill="#a1dcde"/><rect width="179.127" height="2.013" transform="translate(127.261 215.8)" fill="#a1dcde"/><rect width="179.127" height="2.013" transform="translate(127.261 229.888)" fill="#a1dcde"/><rect width="40.29" height="32.736" transform="translate(130.904 151.157)" fill="#d0cde1"/><path d="M310.319,286.192H268.35V251.777h41.969Zm-40.291-1.679H308.64V253.456H270.028Z" transform="translate(-145 -107.335)" fill="#a1dcde"/><circle cx="8" cy="8" r="8" transform="translate(83 154)" fill="#d0cde1"/><rect width="179.127" height="2.013" transform="translate(357.261 496.343)" fill="#a1dcde"/><rect width="179.127" height="2.013" transform="translate(357.261 510.432)" fill="#a1dcde"/><rect width="179.127" height="2.013" transform="translate(357.261 524.521)" fill="#a1dcde"/><rect width="179.127" height="2.013" transform="translate(357.261 431.711)" fill="#a1dcde"/><rect width="179.127" height="2.013" transform="translate(357.261 445.8)" fill="#a1dcde"/><rect width="179.127" height="2.013" transform="translate(357.261 459.888)" fill="#a1dcde"/><rect width="40.29" height="32.736" transform="translate(360.904 381.157)" fill="#d0cde1"/><path d="M540.319,516.192H498.35V481.777h41.969Zm-40.291-1.679H538.64V483.456H500.028Z" transform="translate(-145 -107.335)" fill="#a1dcde"/><circle cx="8" cy="8" r="8" transform="translate(313 384)" fill="#d0cde1"/><path d="M881.337,173.69l19.3,47.495,11.874,32.653,31.169-46.011S924.38,188.532,924.38,163.3Z" transform="translate(-145 -107.335)" fill="#ecbcb4"/><path d="M678.453,570.991l-8.906,44.526L694.779,636.3l10.39-65.3Z" fill="#ecbcb4"/><path d="M823.907,560.6l-2.969,53.432,25.232-4.453,2.968-46.011Z" fill="#ecbcb4"/><circle cx="34.137" cy="34.137" r="34.137" transform="translate(723.722 22.57)" fill="#ecbcb4"/><path d="M980.78,305.786s11.874,103.9,2.968,103.9S931.8,400.776,922.9,393.355,885.79,388.9,885.79,388.9s-20.779,16.327-31.169,7.421,7.421-112.8,7.421-112.8L857.59,219.7s19.295-5.937,28.2,2.968l2.716-3.221,7.718-9.113,11.828,10.85.134.5,4.319,15.822s6.323-21.492,10.79-25.974a3.141,3.141,0,0,1,1.083-.742c4.453-1.484,19.295-14.842,19.295-14.842l10.6,11.918,1.276,1.44,37.106,10.39Z" transform="translate(-145 -107.335)" fill="#d0cde1"/><path d="M863.527,390.386l-2.968,14.842s-16.326,2.968-11.874,34.137L836.811,549.2,817.516,685.747l35.621,4.453,68.274-201.854L962.97,679.81h37.106l-7.421-213.728s5.937-44.527-14.842-65.306S881.337,378.513,863.527,390.386Z" transform="translate(-145 -107.335)" fill="#2f2e41"/><path d="M829.39,725.821s2.968-11.874-4.453-13.358-13.358,4.453-14.842,7.421-35.621,44.527-35.621,44.527-25.232,29.685,11.874,28.2,38.59-19.295,38.59-19.295,0-2.968,7.421-2.968,26.716-10.39,25.232-17.811-13.966-33.072-13.966-33.072S835.326,740.663,829.39,725.821Z" transform="translate(-145 -107.335)" fill="#2f2e41"/><path d="M994.138,708.01s-13.358-8.905-20.779-2.968-10.39,7.421-10.39,7.421l-.12.9a72.652,72.652,0,0,0,3.528,32.579c.879,2.639-.852,4.538-.44,6.6,2.226,11.132,4.453,25.232,26.716,19.295S994.138,708.01,994.138,708.01Z" transform="translate(-145 -107.335)" fill="#2f2e41"/><path d="M983.749,423.039s-25.232,26.716-10.39,35.621,23.748-28.2,23.748-28.2Z" transform="translate(-145 -107.335)" fill="#ecbcb4"/><path d="M819.113,144.982s17.507-32.309.873-37.1S804.3,141.248,804.3,141.248Z" transform="translate(-145 -107.335)" fill="#ecbcb4"/><path d="M763.187,114.354,758.6,127.208l-15.1-15.1L751.224,103l11.829,10.85Z" fill="#2f2e41"/><path d="M954.272,207.871,937,226.38l-13.7-14.842a3.143,3.143,0,0,1,1.083-.742c4.453-1.484,19.295-14.842,19.295-14.842Z" transform="translate(-145 -107.335)" fill="#2f2e41"/><path d="M973.359,224.153l19.295-4.453s20.779,16.326,28.2,72.727-20.779,146.938-20.779,146.938l-22.263-13.358s11.874-71.243,10.39-81.632-10.389-50.463-10.389-50.463Z" transform="translate(-145 -107.335)" fill="#d0cde1"/><path d="M876.156,127.373l-6.21-2.258s12.984-12.984,31.048-11.854l-5.081-5.081s12.419-4.516,23.709,7.339c5.935,6.232,12.8,13.557,17.083,21.808h6.65l-2.775,5.551,9.714,5.551-9.971-1a28.01,28.01,0,0,1-.943,14.376l-2.258,6.209s-9.032-18.064-9.032-20.322v5.645s-6.21-5.081-6.21-8.467l-3.387,3.952-1.693-6.21-20.887,6.21,3.387-5.081-12.984,1.693,5.081-6.21s-12.287,8.489-15.242,13.548c-3.144,5.384-7.9,14.113-7.9,14.113l-3.387-5.645S859.786,135.84,876.156,127.373Z" transform="translate(-145 -107.335)" fill="#2f2e41"/><path d="M865.011,222.669,857.59,219.7l-39.332-5.195,2.226-70.5-17.811-16.326s-48.979,89.053,1.484,121.706,66.79,38.59,66.79,38.59Z" transform="translate(-145 -107.335)" fill="#d0cde1"/><path d="M582.087,478.922A19.913,19.913,0,1,0,602,498.835a19.913,19.913,0,0,0-19.913-19.913Zm-3.435,28.825-8.566-8.566,2.4-2.4,6.171,6.171,13.025-13.025,2.4,2.4Z" transform="translate(-145 -107.335)" fill="#a1dcde"/><path d="M350.087,248.922A19.913,19.913,0,1,0,370,268.835a19.913,19.913,0,0,0-19.913-19.913Zm-3.435,28.825-8.566-8.566,2.4-2.4,6.171,6.171,13.025-13.025,2.4,2.4Z" transform="translate(-145 -107.335)" fill="#a1dcde"/></g></svg>