<svg xmlns="http://www.w3.org/2000/svg" width="1015.271" height="674.036" viewBox="0 0 1015.271 674.036"><g transform="translate(0 0.031)"><circle cx="138.925" cy="138.925" r="138.925" transform="translate(0 386.524)" fill="#f2f2f2"/><path d="M408.979,700.067a293.535,293.535,0,1,1,207.56-85.974,293.535,293.535,0,0,1-207.56,85.974Zm0-584.828c-160.62,0-291.294,130.673-291.294,291.294S248.359,697.827,408.979,697.827s291.293-130.675,291.293-291.3S569.6,115.238,408.979,115.238Z" transform="translate(-102 -112.998)"/><path d="M459.908,386.443l-.033.017L315.2,467.019,156.779,387.808l-2.73-1.365L162.271,222,305.334,120.05l1.579.987,148.062,92.744Z" fill="#fff"/><path d="M459.875,386.46,315.2,467.019,156.779,387.808l140.333-98.384Z" opacity="0.3"/><path d="M459.908,386.443l-162.8-97.019,9.8-168.387,148.062,92.744Z" opacity="0.1"/><path d="M160.165,272.745l-.8-1.138L304.021,169.5l152.813,95.809-.74,1.181L304.066,171.173Z" fill="#f2f2f2"/><path d="M157.361,328.61l-.782-1.152,143.926-97.715.377.214,156.081,88.46-.688,1.212-155.7-88.247Z" fill="#f2f2f2"/><path d="M212.276,415.965l-.734-1.184L356.6,324.9V152.594h1.393V325.676Z" fill="#f2f2f2"/><path d="M269.209,444.428l-.74-1.18,139.669-87.6V184.879h1.393V356.416Z" fill="#f2f2f2"/><path d="M407.612,415.982,245.176,325.73l.023-.434,8.551-169.015,1.391.071-8.529,168.581,161.677,89.831Z" fill="#f2f2f2"/><path d="M356.507,444.455,195.9,360.288l.025-.447,9.468-169.1,1.391.078-9.442,168.651,159.817,83.75Z" fill="#f2f2f2"/><circle cx="56.018" cy="56.018" r="56.018" transform="translate(431.339 7.843)"/><path d="M986.137,473.812l12.8,35.073s-13.361,40.084,0,41.2,15.028-38.413,15.028-38.413l-7.237-42.311Z" transform="translate(-102 -112.998)" fill="#fff" stroke="#000" stroke-width="1"/><path d="M992.261,359.128l9.464,9.464v45.094s5.567,8.351,4.454,10.578-2.227,2.227-1.113,3.9,2.227,2.784,1.113,3.9a4.175,4.175,0,0,0,0,5.01c1.113,1.113,3.34,2.784,1.67,4.454s-3.9.557-1.67,6.681,6.124,7.794,5.01,10.021-1.113,7.794-1.113,7.794l-23.939,3.34-5.01-62.909Z" transform="translate(-102 -112.998)" fill="#fff" stroke="#000" stroke-width="1"/><path d="M909.189,352.464l-27.836,1.113,1.114,11.691,24.5-4.454Z" fill="#3f3d56"/><path d="M832.641,187.953l-3.341,33.4,33.96,5.01,2.505-19.207,2.506-19.207Z" fill="#fff" stroke="#000" stroke-width="1"/><path d="M832.641,187.953l-3.341,33.4,33.96,5.01,2.505-19.207,2.506-19.207Z" transform="translate(147 27)" fill="#fff" opacity="0.1"/><path d="M860.875,459.894l18.928,40.64s3.34,18.928,8.351,19.485,10.021-19.485,10.021-19.485l-6.68-10.577L883.7,459.894Z" transform="translate(-102 -112.998)" fill="#f9f9f9" stroke="#000" stroke-width="1"/><path d="M900.4,496.638l-15.588,24.5S869.783,754.4,872.01,752.728s9.464-2.227,12.248-6.681,20.042,0,20.042,0l10.021-10.578v-8.351c0-1.67,20.042-129.159,20.042-129.159v32.29s-6.124,118.581,3.9,117.468,30.62-7.794,30.62-7.794S998.385,518.35,989.477,510s-12.8-27.279-12.8-27.279Z" transform="translate(-102 -112.998)"/><circle cx="26.722" cy="26.722" r="26.722" transform="translate(824.568 148.365)" fill="#fff" stroke="#000" stroke-width="1"/><path d="M893.722,339.643l-3.9-2.227S872.567,349.107,867,375.273s-9.464,32.846-9.464,32.846-5.567,1.113-1.67,5.01,3.9,3.34.557,5.567-5.567-2.227-3.34,2.227,5.01,3.34,2.784,6.124-6.124,2.784-3.9,5.01-2.227,7.237.557,9.464,3.9,2.784,3.9,6.681a19.715,19.715,0,0,0,1.113,6.681h28.949s-5.567-10.578-3.9-12.8,2.227-4.454,1.113-5.567-4.454,1.113-1.113-1.67,4.454-1.113,3.34-4.454-3.34-1.67-1.113-3.34,3.9-1.113,2.784-2.784-3.34-1.67-1.113-2.784,3.9,0,3.34-2.784-1.113-1.67,0-2.784,12.8-38.97,12.8-40.084S893.722,339.643,893.722,339.643Z" transform="translate(-102 -112.998)" fill="#fff" stroke="#000" stroke-width="1"/><path d="M786.155,339.659l-35.074,2.227,8.908,8.351,24.5.557Z" fill="#3f3d56"/><path d="M898.176,494.411l-7.238,13.361s21.712,2.784,29.506,5.567,27.836,6.681,27.836,6.681l5.01-19.485Z" transform="translate(-102 -112.998)"/><path d="M859.641,387.537l6.124,18.372,24.5-5.011-2.784-17.258Z"/><path d="M971.662,320.715s-1.67-1.113-5.567,1.113-16.7,3.34-22.826-3.34-10.577-12.248-12.247-11.135-2.784,13.918-2.784,13.918l-5.567,4.454-32.846,11.691,2.784,75.157,5.01,17.258s-3.9,13.361,1.113,21.155-2.784,10.578-2.784,10.578-1.67,2.227-.557,7.794-1.113,26.166-1.113,26.166,47.321,21.155,96.869,2.784l-5.567-21.155L982.8,429.831s2.784-7.794,2.227-11.134,16.7-50.1,16.7-50.1-2.784-23.382-17.258-28.393-16.7-10.021-16.7-10.021S974.446,322.942,971.662,320.715Z" transform="translate(-102 -112.998)" fill="#fff" stroke="#000" stroke-width="1"/><path d="M926.383,288.508s-2.775-4.162-1.708-8.645a26.2,26.2,0,0,0,.747-7.791,77.111,77.111,0,0,1,4.483-11.314c2.241-4.056,1.174-5.763,8.218-7.044s4.162-10.46,22.734-.534a5.446,5.446,0,0,0,5.657,2.135c3.842-.747,5.23,4.589,5.23,4.589s2.562-1.494,3.522.64,7.81-1.281,7.81,13.127-7.794,27.279-7.794,27.279.571-24.237-12.13-26.692-26.362-9.606-29.671-.427a69.973,69.973,0,0,1-7.1,14.676Z" transform="translate(-102 -112.998)"/><ellipse cx="2.505" cy="3.34" rx="2.505" ry="3.34" transform="translate(871.054 174.592)" fill="#fff"/><path d="M961.363,737.951l3.915,11.746s0,11.746,3.915,17.619,7.831,18.6-7.831,19.576S938.85,782,938.85,782s2.936-7.831,0-10.767,0-8.809,0-8.809l2.936-23.492Z" transform="translate(-102 -112.998)"/><path d="M885.093,737.951,881.178,749.7s0,11.746-3.915,17.619-7.831,18.6,7.831,19.576S907.606,782,907.606,782s-2.936-7.831,0-10.767,0-8.809,0-8.809L904.67,738.93Z" transform="translate(-102 -112.998)"/></g></svg>